Coordinates
version=1
nRows=16
nColumns=18
inDegrees=yes

Units are S.I. units (second, meters, Newtons, ...)
Angles are in degrees.

endheader
time	pelvis_tilt	pelvis_list	pelvis_rotation	pelvis_tx	pelvis_ty	pelvis_tz	hip_flexion_r	hip_adduction_r	hip_rotation_r	knee_angle_r	ankle_angle_r	hip_flexion_l	hip_adduction_l	hip_rotation_l	knee_angle_l	ankle_angle_l	lumbar_extension
      0.00000000	     -1.23822393	     -3.90658259	     -1.41280883	     -1.38808334	      0.80017015	     -0.25496919	    -16.00464086	      6.53979087	      0.00000000	    -20.86040702	      4.46252821	     22.34900374	     -2.64433267	      0.00000000	    -22.95484535	     14.91197971	     -5.00000214
      0.01000000	     -0.93161384	     -3.95462301	     -1.38736467	     -1.37544438	      0.80040853	     -0.25664130	    -15.68397839	      6.29238098	      0.00000000	    -22.96541410	      1.45534024	     21.87884458	     -2.51083011	      0.00000000	    -24.56498272	     16.51811153	     -5.00000214
      0.02000000	     -0.63698164	     -4.00586877	     -1.35450033	     -1.36299676	      0.80066952	     -0.25827056	    -15.33417566	      6.05879407	      0.00000000	    -25.03289260	     -1.56050803	     21.31920164	     -2.38271905	      0.00000000	    -25.96483644	     17.93167906	     -5.00000214
      0.03000000	     -0.35136732	     -4.03794746	     -1.33264267	     -1.35076026	      0.80116243	     -0.25985565	    -14.92821362	      5.80291269	      0.00000000	    -27.06258578	     -4.49926313	     20.51559456	     -2.23653054	      0.00000000	    -26.88056068	     19.16607731	     -5.00000214
      0.04000000	     -0.13525184	     -4.05293003	     -1.41966169	     -1.33900995	      0.80188640	     -0.26126815	    -14.23083156	      5.49872009	      0.00000000	    -29.32480470	     -6.38028425	     19.48449859	     -2.09213757	      0.00000000	    -27.19439188	     20.01176964	     -5.00000214
      0.05000000	      0.12921594	     -4.06817492	     -1.36398309	     -1.32719615	      0.80299614	     -0.26276426	    -13.66306377	      5.25053572	      0.00000000	    -31.26325533	     -9.12537258	     18.29308394	     -1.93453545	      0.00000000	    -27.34739258	     21.03015190	     -5.00000214
      0.06000000	      0.31770552	     -4.04517128	     -1.47773739	     -1.31588828	      0.80437692	     -0.26407748	    -12.73838602	      4.89828772	      0.00000000	    -33.52215068	    -10.09017518	     16.85907815	     -1.75211666	      0.00000000	    -26.85073155	     21.52051954	     -5.00000214
      0.07000000	      0.50142820	     -4.02358961	     -1.62797761	     -1.30473716	      0.80608575	     -0.26525681	    -11.73086046	      4.54050626	      0.00000000	    -35.72854271	    -11.10608315	     15.24935983	     -1.58330701	      0.00000000	    -26.00025910	     22.02734154	     -5.00000214
      0.08000000	      0.65906142	     -4.01783144	     -1.90918830	     -1.29384292	      0.80800929	     -0.26618619	    -10.53815952	      4.15153223	      0.00000000	    -38.01133799	    -11.54439953	     13.50802088	     -1.44453085	      0.00000000	    -24.83791829	     22.35683795	     -5.00000214
      0.09000000	      0.78254478	     -3.96086414	     -2.22188928	     -1.28312842	      0.81007954	     -0.26715819	     -9.22543223	      3.69614613	      0.00000000	    -40.25823283	    -11.65366157	     11.66814677	     -1.23958299	      0.00000000	    -23.36317788	     22.58534704	     -5.00000214
      0.10000000	      0.91698417	     -3.92384097	     -2.74358274	     -1.27262610	      0.81229875	     -0.26779615	     -7.80895641	      3.18145991	      0.00000000	    -42.49733096	    -11.43064280	      9.70207166	     -1.06720625	      0.00000000	    -21.64766979	     22.68834059	     -5.00000214
      0.11000000	      1.09685570	     -3.79470394	     -3.34457888	     -1.26201379	      0.81462468	     -0.26864083	     -6.43534530	      2.50246133	      0.00000000	    -44.56469207	    -10.75216108	      7.54133343	     -0.74446987	      0.00000000	    -19.63609902	     22.55257195	     -5.00000214
      0.12000000	      1.33986193	     -3.73008639	     -3.96968296	     -1.25128464	      0.81710248	     -0.26914088	     -5.19226266	      1.92541508	      0.00000000	    -46.34452936	     -9.42495109	      5.10702321	     -0.50410645	      0.00000000	    -17.19677367	     21.92168069	     -5.00000214
      0.13000000	      1.43105344	     -3.67159133	     -4.61162557	     -1.24135992	      0.81924073	     -0.26960353	     -3.58008560	      1.38698758	      0.00000000	    -48.22528841	     -8.44888878	      3.11303043	     -0.27072083	      0.00000000	    -15.15111501	     21.47001404	     -5.00000214
      0.14000000	      1.48420978	     -3.62136570	     -5.24447283	     -1.23177426	      0.82123690	     -0.26999164	     -1.87305988	      0.90345144	      0.00000000	    -49.98496817	     -7.47317262	      1.21336192	     -0.04556682	      0.00000000	    -13.13730112	     20.91114479	     -5.00000214
      0.15000000	      1.48690208	     -3.58560310	     -5.84172197	     -1.22256305	      0.82305672	     -0.27032218	     -0.06407438	      0.50228904	      0.00000000	    -51.61686344	     -6.53953624	     -0.56803415	      0.15830452	      0.00000000	    -11.17125116	     20.26012288	     -5.00000214
